<svg xmlns="http://www.w3.org/2000/svg" viewBox="0 0 512 512">
  <defs>
    <linearGradient id="grad" x1="0%" y1="0%" x2="100%" y2="100%">
      <stop offset="0%" style="stop-color:#475569;stop-opacity:1" />
      <stop offset="100%" style="stop-color:#0f172a;stop-opacity:1" />
    </linearGradient>
  </defs>
  <rect width="512" height="512" rx="100" fill="url(#grad)"/>
  <g transform="translate(106, 106) scale(12.5)" fill="none" stroke="#ffffff" stroke-width="1.5" stroke-linecap="round" stroke-linejoin="round">
     <path d="M9.5 2A2.5 2.5 0 0 1 12 4.5v0A2.5 2.5 0 0 1 9.5 7h-3A2.5 2.5 0 0 1 4 4.5v0A2.5 2.5 0 0 1 6.5 2Z"/>
     <path d="M14.5 2A2.5 2.5 0 0 0 12 4.5v0A2.5 2.5 0 0 0 14.5 7h3A2.5 2.5 0 0 0 20 4.5v0A2.5 2.5 0 0 0 17.5 2Z"/>
     <path d="M4.2 7.5A2.5 2.5 0 0 0 6.5 10h.06a2.5 2.5 0 0 1 2.4 2.06C9.2 14.3 8.3 16.5 7.2 18c-2.3 3-5.2 4.5-5.2 4.5"/>
     <path d="M19.8 7.5A2.5 2.5 0 0 1 17.5 10h-.06a2.5 2.5 0 0 0-2.4 2.06c-.3 2.2.6 4.4 1.7 6 2.3 3 5.2 4.5 5.2 4.5"/>
     <path d="M12 10a2.5 2.5 0 0 0-2.5 2.5v.06a2.5 2.5 0 0 1-2.06 2.4C5.2 15.2 3 17.3 3 20"/>
     <path d="M12 10a2.5 2.5 0 0 1 2.5 2.5v.06a2.5 2.5 0 0 0 2.06 2.4c2.3.3 4.5 2.4 4.5 5"/>
  </g>
</svg>