<svg xmlns="http://www.w3.org/2000/svg" viewBox="0 0 512 512">
  <defs>
    <linearGradient id="grad" x1="0%" y1="0%" x2="100%" y2="100%">
      <stop offset="0%" stop-color="#4f46e5"/> <!-- Indigo-600 -->
      <stop offset="100%" stop-color="#9333ea"/> <!-- Purple-600 -->
    </linearGradient>
    <filter id="glow" x="-20%" y="-20%" width="140%" height="140%">
      <feGaussianBlur stdDeviation="15" result="blur" />
      <feComposite in="SourceGraphic" in2="blur" operator="over" />
    </filter>
  </defs>
  
  <!-- Background: Squircle -->
  <rect width="512" height="512" rx="120" fill="url(#grad)"/>
  
  <!-- Neural Brain Icon (New Polygon Logo) -->
  <g transform="translate(99.6, 99.6) scale(10)" fill="#ffffff" stroke="none">
    <path d="M8.498,4.775L6.384,3.504l3.115-0.042V0.701L4.943,2.47l-0.929,1.6l3.075,1.346c0,0-3.717,0-3.907,0
			c-0.193,0-0.386,3.203-0.386,3.203h3.716L8.498,4.775z"/>
		<polygon points="9.126,11.84 5.603,9.418 2.881,9.418 6.885,12.736"/>
		<polygon points="23.743,12.142 25.217,12.847 23.104,12.591 23.872,10.604 28.483,10.284 26.562,7.018 22.976,9.645 19.58,8.619 
			16.187,10.604 12.342,10.476 12.149,12.205 14.712,13.199 14.455,14.192 12.47,13.552 9.267,12.205 7.985,12.91 7.985,15.089 
			9.972,16.434 13.718,16.434 14.112,26.516 11.032,28.211 11.04,28.717 3.827,28.717 3.827,31.279 26.435,31.279 26.435,28.717 
			19.626,28.717 19.631,27.561 16.114,26.568 16.147,16.377 17.274,13.871 15.961,12.23 19.646,12.397 18.003,13.959 19.899,14.031 
			22.334,13.102 24.056,14.584 27.86,14.562 28.185,10.979 24.065,11.117"/>
		<polygon points="17.178,16.41 19.099,18.141 23.433,17.17 23.433,14.68 17.858,14.68"/>
		<polygon points="18.636,4.659 18.491,7.53 19.581,7.937 21.247,5.438 21.438,0.676 18.233,0.159 15.833,3.783"/>
		<polygon points="21.438,6.569 21.438,8.298 23.231,8.298 26.435,5.607 23.231,2.213 22.334,3.063 22.462,5.256"/>
		<polygon points="9.595,5.256 9.011,6.376 9.859,7.018 9.588,7.979 7.985,7.434 6.865,9.418 9.499,11.311 11.444,10.545 
			12.171,8.298 12.917,8.619 12.917,9.323 16.892,9.068 17.528,7.273 17.528,5.289 14.455,4.326 15.481,2.871 16.729,0.899 
			14.783,0.035 10.651,0 10.604,3.958 13.911,5.928 12.917,6.376"/>
  </g>
</svg>